<svg xmlns="http://www.w3.org/2000/svg" xmlns:xlink="http://www.w3.org/1999/xlink" width="190" zoomAndPan="magnify" viewBox="0 0 142.5 33.749998" height="45" preserveAspectRatio="xMidYMid meet" version="1.0"><defs><g/><clipPath id="df2ebe6ec8"><path d="M 2.402344 3.363281 L 25.507812 3.363281 L 25.507812 26.46875 L 2.402344 26.46875 Z M 2.402344 3.363281 " clip-rule="nonzero"/></clipPath><clipPath id="9dc8ab3314"><path d="M 6.847656 8.273438 L 29.875 8.273438 L 29.875 30.304688 L 6.847656 30.304688 Z M 6.847656 8.273438 " clip-rule="nonzero"/></clipPath></defs><g clip-path="url(#df2ebe6ec8)"><path fill="#ff7f00" d="M 24.828125 14.429688 L 14.433594 4.039062 C 14.011719 3.621094 13.4375 3.363281 12.800781 3.363281 L 4.714844 3.363281 C 3.4375 3.363281 2.402344 4.394531 2.402344 5.671875 L 2.402344 13.757812 C 2.402344 14.398438 2.664062 14.976562 3.085938 15.394531 L 13.480469 25.789062 C 13.898438 26.207031 14.476562 26.46875 15.109375 26.46875 C 15.746094 26.46875 16.328125 26.207031 16.746094 25.789062 L 24.832031 17.703125 C 25.25 17.28125 25.507812 16.703125 25.507812 16.070312 C 25.507812 15.429688 25.25 14.851562 24.828125 14.429688 Z M 6.445312 9.136719 C 5.488281 9.136719 4.714844 8.363281 4.714844 7.40625 C 4.714844 6.445312 5.488281 5.671875 6.445312 5.671875 C 7.40625 5.671875 8.179688 6.445312 8.179688 7.40625 C 8.179688 8.363281 7.40625 9.136719 6.445312 9.136719 Z M 6.445312 9.136719 " fill-opacity="1" fill-rule="nonzero"/></g><g clip-path="url(#9dc8ab3314)"><path fill="#328ed2" d="M 7.472656 8.28125 C 7.507812 8.28125 7.542969 8.285156 7.578125 8.289062 L 11.105469 8.890625 C 11.332031 8.929688 11.519531 9.082031 11.601562 9.296875 L 13.238281 13.488281 L 29.207031 13.886719 C 29.390625 13.890625 29.5625 13.972656 29.683594 14.113281 C 29.800781 14.25 29.859375 14.433594 29.835938 14.617188 L 28.957031 21.902344 C 28.917969 22.207031 28.667969 22.449219 28.359375 22.472656 L 16.972656 23.378906 L 14.71875 25.148438 C 14.714844 25.152344 14.710938 25.152344 14.710938 25.15625 C 14.707031 25.15625 14.703125 25.160156 14.703125 25.160156 C 14.699219 25.160156 14.695312 25.164062 14.695312 25.164062 C 14.28125 25.472656 14.179688 25.890625 14.238281 26.125 C 14.273438 26.257812 14.324219 26.351562 14.441406 26.429688 C 14.5625 26.503906 14.769531 26.558594 15.125 26.539062 C 15.128906 26.539062 15.128906 26.539062 15.128906 26.539062 C 15.140625 26.535156 15.15625 26.535156 15.164062 26.539062 C 15.167969 26.539062 15.167969 26.539062 15.171875 26.539062 L 28.75 26.578125 L 28.753906 26.578125 C 29.109375 26.574219 29.410156 26.875 29.40625 27.230469 C 29.40625 27.585938 29.105469 27.882812 28.75 27.878906 L 27.753906 27.878906 C 28.121094 28.113281 28.371094 28.523438 28.371094 28.988281 C 28.371094 29.714844 27.773438 30.308594 27.046875 30.308594 C 26.320312 30.308594 25.726562 29.714844 25.726562 28.988281 C 25.726562 28.519531 25.976562 28.105469 26.347656 27.871094 L 15.164062 27.839844 C 15.570312 28.066406 15.84375 28.496094 15.84375 28.988281 C 15.84375 29.714844 15.25 30.308594 14.523438 30.308594 C 13.796875 30.308594 13.199219 29.714844 13.199219 28.988281 C 13.199219 28.359375 13.648438 27.828125 14.242188 27.699219 C 13.679688 27.5 13.25 27.089844 12.984375 26.464844 C 12.980469 26.457031 12.976562 26.449219 12.972656 26.441406 C 12.769531 25.625 13.132812 24.734375 13.878906 24.15625 C 13.882812 24.15625 13.882812 24.152344 13.886719 24.152344 C 13.886719 24.148438 13.886719 24.144531 13.890625 24.144531 C 13.894531 24.136719 13.902344 24.128906 13.910156 24.125 L 15.511719 22.871094 L 10.523438 10.113281 L 7.359375 9.574219 C 7.027344 9.519531 6.78125 9.210938 6.8125 8.875 C 6.839844 8.539062 7.132812 8.277344 7.472656 8.28125 Z M 13.71875 14.492188 L 14.636719 16.847656 L 15.835938 16.847656 L 15.835938 14.546875 Z M 16.292969 14.558594 L 16.292969 16.847656 L 18.507812 16.847656 L 18.507812 14.613281 Z M 18.964844 14.625 L 18.964844 16.847656 L 21.179688 16.847656 L 21.179688 14.679688 Z M 21.636719 14.691406 L 21.636719 16.847656 L 23.847656 16.847656 L 23.847656 14.746094 Z M 24.304688 14.757812 L 24.304688 16.847656 L 26.519531 16.847656 L 26.519531 14.816406 Z M 26.976562 14.824219 L 26.976562 16.847656 L 28.597656 16.847656 L 28.839844 14.871094 Z M 28.542969 17.304688 L 26.976562 17.304688 L 26.976562 19.371094 L 28.292969 19.371094 Z M 26.519531 17.304688 L 24.304688 17.304688 L 24.304688 19.371094 L 26.519531 19.371094 Z M 23.847656 17.304688 L 21.636719 17.304688 L 21.636719 19.371094 L 23.847656 19.371094 Z M 21.179688 17.304688 L 18.964844 17.304688 L 18.964844 19.371094 L 21.179688 19.371094 Z M 18.507812 17.304688 L 16.292969 17.304688 L 16.292969 19.371094 L 18.507812 19.371094 Z M 15.835938 17.304688 L 14.816406 17.304688 L 15.621094 19.371094 L 15.835938 19.371094 Z M 28.238281 19.828125 L 26.976562 19.828125 L 26.976562 21.3125 L 28.070312 21.222656 Z M 26.519531 19.828125 L 24.304688 19.828125 L 24.304688 21.523438 L 26.519531 21.347656 Z M 23.847656 19.828125 L 21.636719 19.828125 L 21.636719 21.734375 L 23.847656 21.558594 Z M 21.175781 19.828125 L 18.964844 19.828125 L 18.964844 21.949219 L 21.175781 21.773438 Z M 18.507812 19.828125 L 16.292969 19.828125 L 16.292969 21.085938 L 16.714844 22.160156 C 16.769531 22.132812 16.828125 22.117188 16.886719 22.113281 L 18.507812 21.984375 Z M 15.835938 19.828125 L 15.804688 19.828125 L 15.835938 19.921875 Z M 27.046875 28.214844 C 26.617188 28.214844 26.269531 28.558594 26.269531 28.988281 C 26.269531 29.421875 26.617188 29.761719 27.046875 29.761719 C 27.480469 29.761719 27.824219 29.421875 27.824219 28.988281 C 27.824219 28.558594 27.480469 28.214844 27.046875 28.214844 Z M 14.519531 28.214844 C 14.089844 28.214844 13.746094 28.558594 13.746094 28.988281 C 13.746094 29.421875 14.089844 29.761719 14.519531 29.761719 C 14.953125 29.761719 15.296875 29.421875 15.296875 28.988281 C 15.296875 28.558594 14.953125 28.214844 14.519531 28.214844 Z M 27.046875 28.582031 C 27.28125 28.582031 27.46875 28.769531 27.46875 29.003906 C 27.46875 29.238281 27.28125 29.421875 27.046875 29.421875 C 26.8125 29.421875 26.625 29.238281 26.625 29.003906 C 26.625 28.769531 26.8125 28.582031 27.046875 28.582031 Z M 14.519531 28.582031 C 14.753906 28.582031 14.941406 28.769531 14.941406 29.003906 C 14.941406 29.238281 14.753906 29.421875 14.519531 29.421875 C 14.285156 29.421875 14.097656 29.238281 14.097656 29.003906 C 14.097656 28.769531 14.285156 28.582031 14.519531 28.582031 Z M 14.519531 28.582031 " fill-opacity="1" fill-rule="nonzero"/></g><g fill="#328ed2" fill-opacity="1"><g transform="translate(51.123524, 23.372359)"><g><path d="M 2.097656 0 L 3.019531 0 C 3.492188 0 3.664062 -0.171875 3.664062 -0.640625 L 3.664062 -6.382812 C 3.664062 -7.570312 3.550781 -8.6875 3.246094 -10.175781 L 3.378906 -10.175781 C 3.851562 -8.648438 4.191406 -7.816406 4.832031 -6.722656 L 6.722656 -3.4375 C 6.949219 -3.058594 7.082031 -2.984375 7.457031 -2.984375 L 8.0625 -2.984375 C 8.457031 -2.984375 8.609375 -3.097656 8.800781 -3.4375 L 10.648438 -6.722656 C 11.253906 -7.796875 11.726562 -8.742188 12.214844 -10.160156 L 12.328125 -10.160156 C 12.027344 -8.703125 11.875 -7.476562 11.875 -6.402344 L 11.875 -0.640625 C 11.875 -0.171875 12.046875 0 12.519531 0 L 13.480469 0 C 13.972656 0 14.140625 -0.171875 14.140625 -0.640625 L 14.140625 -12.765625 C 14.140625 -13.234375 13.972656 -13.40625 13.480469 -13.40625 L 12.554688 -13.40625 C 12.046875 -13.40625 11.914062 -13.3125 11.6875 -12.894531 L 7.777344 -5.890625 L 3.832031 -12.914062 C 3.625 -13.3125 3.472656 -13.40625 2.925781 -13.40625 L 2.097656 -13.40625 C 1.605469 -13.40625 1.453125 -13.234375 1.453125 -12.765625 L 1.453125 -0.640625 C 1.453125 -0.171875 1.605469 0 2.097656 0 Z M 2.097656 0 "/></g></g></g><g fill="#328ed2" fill-opacity="1"><g transform="translate(66.698431, 23.372359)"><g><path d="M 2.097656 0 L 9.820312 0 C 10.289062 0 10.460938 -0.171875 10.460938 -0.640625 L 10.460938 -1.566406 C 10.460938 -2.039062 10.289062 -2.210938 9.820312 -2.210938 L 3.8125 -2.210938 L 3.8125 -5.683594 L 8.703125 -5.683594 C 9.195312 -5.683594 9.347656 -5.851562 9.347656 -6.324219 L 9.347656 -7.25 C 9.347656 -7.722656 9.195312 -7.890625 8.703125 -7.890625 L 3.8125 -7.890625 L 3.8125 -11.195312 L 9.609375 -11.195312 C 10.082031 -11.195312 10.253906 -11.367188 10.253906 -11.839844 L 10.253906 -12.765625 C 10.253906 -13.234375 10.082031 -13.40625 9.609375 -13.40625 L 2.097656 -13.40625 C 1.605469 -13.40625 1.453125 -13.234375 1.453125 -12.765625 L 1.453125 -0.640625 C 1.453125 -0.171875 1.605469 0 2.097656 0 Z M 2.097656 0 "/></g></g></g><g fill="#328ed2" fill-opacity="1"><g transform="translate(77.912365, 23.372359)"><g><path d="M 2.097656 0 L 3.171875 0 C 3.664062 0 3.8125 -0.171875 3.8125 -0.640625 L 3.8125 -5.097656 L 5.210938 -5.097656 C 6.515625 -5.097656 6.96875 -4.816406 7.476562 -3.777344 L 9.042969 -0.566406 C 9.269531 -0.09375 9.535156 0 10.328125 0 L 11.421875 0 C 11.894531 0 11.953125 -0.285156 11.746094 -0.640625 L 9.667969 -4.625 C 9.496094 -4.964844 9.308594 -5.230469 9.082031 -5.4375 C 10.628906 -5.964844 11.554688 -7.289062 11.554688 -9.253906 C 11.554688 -11.859375 9.933594 -13.40625 7.324219 -13.40625 L 2.097656 -13.40625 C 1.605469 -13.40625 1.453125 -13.234375 1.453125 -12.765625 L 1.453125 -0.640625 C 1.453125 -0.171875 1.605469 0 2.097656 0 Z M 3.8125 -7.308594 L 3.8125 -11.195312 L 7.097656 -11.195312 C 8.363281 -11.195312 9.082031 -10.5 9.082031 -9.253906 C 9.082031 -7.988281 8.363281 -7.308594 7.097656 -7.308594 Z M 3.8125 -7.308594 "/></g></g></g><g fill="#328ed2" fill-opacity="1"><g transform="translate(90.485566, 23.372359)"><g><path d="M 6.457031 0.285156 C 9.253906 0.285156 10.894531 -0.851562 11.613281 -2.890625 C 11.761719 -3.34375 11.648438 -3.550781 11.195312 -3.71875 L 10.175781 -4.078125 C 9.722656 -4.25 9.535156 -4.152344 9.367188 -3.683594 C 8.929688 -2.53125 8.042969 -1.925781 6.457031 -1.925781 C 4.511719 -1.925781 3.4375 -2.890625 3.4375 -4.625 L 3.4375 -8.800781 C 3.4375 -10.535156 4.511719 -11.480469 6.457031 -11.480469 C 8.042969 -11.480469 8.929688 -10.894531 9.347656 -9.742188 C 9.515625 -9.269531 9.707031 -9.214844 10.175781 -9.347656 L 11.195312 -9.707031 C 11.648438 -9.875 11.761719 -10.082031 11.59375 -10.535156 C 10.894531 -12.574219 9.234375 -13.6875 6.457031 -13.6875 C 2.984375 -13.6875 1.058594 -11.800781 1.058594 -8.78125 L 1.058594 -4.644531 C 1.058594 -1.605469 3.003906 0.285156 6.457031 0.285156 Z M 6.457031 0.285156 "/></g></g></g><g fill="#328ed2" fill-opacity="1"><g transform="translate(102.832218, 23.372359)"><g><path d="M 0.753906 0 L 1.625 0 C 2.4375 0 2.644531 -0.113281 2.792969 -0.566406 L 3.699219 -3.003906 L 8.894531 -3.003906 L 9.78125 -0.566406 C 9.914062 -0.113281 10.140625 0 10.953125 0 L 11.933594 0 C 12.40625 0 12.5 -0.207031 12.347656 -0.625 L 7.628906 -12.914062 C 7.496094 -13.332031 7.269531 -13.425781 6.835938 -13.425781 L 5.835938 -13.425781 C 5.398438 -13.425781 5.210938 -13.332031 5.042969 -12.894531 L 0.339844 -0.625 C 0.171875 -0.207031 0.285156 0 0.753906 0 Z M 4.363281 -4.945312 L 5.816406 -8.949219 C 6.210938 -10.101562 6.210938 -11.214844 6.210938 -11.234375 L 6.363281 -11.234375 C 6.363281 -11.214844 6.402344 -10.101562 6.796875 -8.929688 L 8.230469 -4.945312 Z M 4.363281 -4.945312 "/></g></g></g><g fill="#328ed2" fill-opacity="1"><g transform="translate(115.537569, 23.372359)"><g><path d="M 2.097656 0 L 6.324219 0 C 9.835938 0 11.800781 -1.90625 11.800781 -4.984375 L 11.800781 -8.421875 C 11.800781 -11.5 9.835938 -13.40625 6.324219 -13.40625 L 2.097656 -13.40625 C 1.605469 -13.40625 1.453125 -13.234375 1.453125 -12.765625 L 1.453125 -0.640625 C 1.453125 -0.171875 1.605469 0 2.097656 0 Z M 3.8125 -2.210938 L 3.8125 -11.195312 L 6.34375 -11.195312 C 8.34375 -11.195312 9.441406 -10.234375 9.441406 -8.441406 L 9.441406 -4.964844 C 9.441406 -3.171875 8.328125 -2.210938 6.34375 -2.210938 Z M 3.8125 -2.210938 "/></g></g></g><g fill="#328ed2" fill-opacity="1"><g transform="translate(128.393941, 23.372359)"><g><path d="M 6.457031 0.285156 C 9.933594 0.285156 11.859375 -1.605469 11.859375 -4.644531 L 11.859375 -8.761719 C 11.859375 -11.800781 9.933594 -13.6875 6.457031 -13.6875 C 2.984375 -13.6875 1.058594 -11.800781 1.058594 -8.761719 L 1.058594 -4.644531 C 1.058594 -1.605469 2.984375 0.285156 6.457031 0.285156 Z M 6.457031 -1.925781 C 4.511719 -1.925781 3.4375 -2.871094 3.4375 -4.625 L 3.4375 -8.78125 C 3.4375 -10.535156 4.511719 -11.480469 6.457031 -11.480469 C 8.402344 -11.480469 9.480469 -10.535156 9.480469 -8.78125 L 9.480469 -4.625 C 9.480469 -2.871094 8.402344 -1.925781 6.457031 -1.925781 Z M 6.457031 -1.925781 "/></g></g></g><g fill="#ff7f00" fill-opacity="1"><g transform="translate(30.567258, 23.688831)"><g><path d="M 10.390625 0 L 10.390625 -2.324219 L 3.816406 -2.324219 L 3.816406 -5.726562 L 9.707031 -5.726562 L 9.707031 -8.03125 L 3.816406 -8.03125 L 3.816406 -11.417969 L 10.390625 -11.417969 L 10.390625 -13.738281 L 1.222656 -13.738281 L 1.222656 0 Z M 10.390625 0 "/></g></g></g><g fill="#ff7f00" fill-opacity="1"><g transform="translate(43.546579, 23.688831)"><g><path d="M 6.121094 -4.808594 L 6.121094 -6.878906 L 0.449219 -6.878906 L 0.449219 -4.808594 Z M 6.121094 -4.808594 "/></g></g></g></svg>