<svg xmlns="http://www.w3.org/2000/svg" xmlns:xlink="http://www.w3.org/1999/xlink" width="40" zoomAndPan="magnify" viewBox="0 0 30 30.000001" height="40" preserveAspectRatio="xMidYMid meet" version="1.0"><defs><clipPath id="91bed270ae"><path d="M 0.484375 0 L 29.515625 0 L 29.515625 29.03125 L 0.484375 29.03125 Z M 0.484375 0 " clip-rule="nonzero"/></clipPath></defs><g clip-path="url(#91bed270ae)"><path fill="#000000" d="M 200.082031 0 C 90.027344 0 0.484375 89.542969 0.484375 199.597656 C 0.484375 309.648438 90.027344 399.195312 200.082031 399.195312 C 310.132812 399.195312 399.675781 309.648438 399.675781 199.597656 C 399.675781 89.542969 310.132812 0 200.082031 0 Z M 87.980469 333.339844 C 89.839844 273.046875 139.339844 224.546875 200.082031 224.546875 C 260.820312 224.546875 310.320312 273.046875 312.179688 333.339844 C 281.816406 358.824219 242.730469 374.242188 200.082031 374.242188 C 157.429688 374.242188 118.347656 358.824219 87.980469 333.339844 Z M 137.707031 137.222656 C 137.707031 102.828125 165.6875 74.847656 200.082031 74.847656 C 234.472656 74.847656 262.453125 102.828125 262.453125 137.222656 C 262.453125 171.617188 234.472656 199.597656 200.082031 199.597656 C 165.6875 199.597656 137.707031 171.617188 137.707031 137.222656 Z M 334.734375 310.683594 C 325.703125 264.054688 292.992188 225.882812 249.667969 209.003906 C 272.433594 193.234375 287.402344 166.949219 287.402344 137.222656 C 287.402344 89.082031 248.222656 49.898438 200.082031 49.898438 C 151.941406 49.898438 112.757812 89.082031 112.757812 137.222656 C 112.757812 166.949219 127.726562 193.234375 150.492188 209.015625 C 107.167969 225.894531 74.460938 264.066406 65.414062 310.699219 C 40.453125 280.484375 25.433594 241.761719 25.433594 199.597656 C 25.433594 103.292969 103.773438 24.949219 200.082031 24.949219 C 296.386719 24.949219 374.726562 103.292969 374.726562 199.597656 C 374.726562 241.761719 359.707031 280.484375 334.734375 310.683594 Z M 334.734375 310.683594 " fill-opacity="1" fill-rule="nonzero"/><path fill="#ffffff" d="M 25.265625 4.25 C 22.523438 1.511719 18.878906 0 15 0 C 11.121094 0 7.476562 1.511719 4.734375 4.25 C 1.992188 6.992188 0.484375 10.636719 0.484375 14.515625 C 0.484375 18.394531 1.992188 22.039062 4.734375 24.78125 C 7.476562 27.523438 11.121094 29.03125 15 29.03125 C 18.878906 29.03125 22.523438 27.523438 25.265625 24.78125 C 28.003906 22.039062 29.515625 18.394531 29.515625 14.515625 C 29.515625 10.636719 28.003906 6.992188 25.265625 4.25 Z M 5.394531 4.910156 C 7.960938 2.34375 11.371094 0.929688 15 0.929688 C 18.628906 0.929688 22.039062 2.34375 24.605469 4.910156 C 27.171875 7.476562 28.585938 10.886719 28.585938 14.515625 C 28.585938 17.53125 27.605469 20.398438 25.804688 22.753906 C 24.367188 20.746094 22.078125 19.5625 19.585938 19.5625 L 10.410156 19.5625 C 7.921875 19.5625 5.632812 20.746094 4.195312 22.753906 C 2.394531 20.398438 1.414062 17.53125 1.414062 14.515625 C 1.414062 10.886719 2.828125 7.476562 5.394531 4.910156 Z M 15 18.796875 C 18.730469 18.796875 21.761719 15.761719 21.761719 12.03125 C 21.761719 8.300781 18.730469 5.269531 15 5.269531 C 11.269531 5.269531 8.234375 8.300781 8.234375 12.03125 C 8.234375 15.761719 11.269531 18.796875 15 18.796875 Z M 15 18.796875 " fill-opacity="1" fill-rule="nonzero"/></g></svg>